HIERARCHY
ROOT Hips
{
  OFFSET -331.093 83.8371 -317.828
  CHANNELS 6 Xposition Yposition Zposition Zrotation Xrotation Yrotation
  JOINT LeftUpLeg
  {
    OFFSET 8.64259 1.95398 -2.38835
    CHANNELS 3 Zrotation Xrotation Yrotation
    JOINT LeftLeg
    {
      OFFSET 43.7702 0 0
      CHANNELS 3 Zrotation Xrotation Yrotation
      JOINT LeftFoot
      {
        OFFSET 40.6238 0 0
        CHANNELS 3 Zrotation Xrotation Yrotation
        JOINT LeftToeBase
        {
          OFFSET 12.7242 0 0
          CHANNELS 3 Zrotation Xrotation Yrotation
          End Site
          {
            OFFSET 0 0 0
          }
        }
      }
    }
  }
  JOINT RightUpLeg
  {
    OFFSET -8.2249 1.95398 -2.59336
    CHANNELS 3 Zrotation Xrotation Yrotation
    JOINT RightLeg
    {
      OFFSET 43.5653 0 0
      CHANNELS 3 Zrotation Xrotation Yrotation
      JOINT RightFoot
      {
        OFFSET 40.6238 0 0
        CHANNELS 3 Zrotation Xrotation Yrotation
        JOINT RightToeBase
        {
          OFFSET 12.7242 0 0
          CHANNELS 3 Zrotation Xrotation Yrotation
          End Site
          {
            OFFSET 0 0 0
          }
        }
      }
    }
  }
  JOINT Spine
  {
    OFFSET 0.165834 0.87714 6.61349
    CHANNELS 3 Zrotation Xrotation Yrotation
    JOINT Spine1
    {
      OFFSET 7.38963 1.71661e-005 0
      CHANNELS 3 Zrotation Xrotation Yrotation
      JOINT Spine2
      {
        OFFSET 11.9445 1.14441e-005 0
        CHANNELS 3 Zrotation Xrotation Yrotation
        JOINT Spine3
        {
          OFFSET 14.7254 4.19617e-005 0
          CHANNELS 3 Zrotation Xrotation Yrotation
          JOINT Spine4
          {
            OFFSET 10.9679 0 0
            CHANNELS 3 Zrotation Xrotation Yrotation
            JOINT RightShoulder
            {
              OFFSET 2.46616 -1.6653 3.69651
              CHANNELS 3 Zrotation Xrotation Yrotation
              JOINT RightArm
              {
                OFFSET 13.0012 0 0
                CHANNELS 3 Zrotation Xrotation Yrotation
                JOINT RightForeArm
                {
                  OFFSET 28.7848 1.62311e-005 0
                  CHANNELS 3 Zrotation Xrotation Yrotation
                  JOINT RightHand
                  {
                    OFFSET 26.5688 1.62095e-005 0
                    CHANNELS 3 Zrotation Xrotation Yrotation
                    End Site
                    {
                      OFFSET 0 0 0
                    }
                  }
                }
              }
            }
            JOINT LeftShoulder
            {
              OFFSET 2.38034 -1.29275 -3.7523
              CHANNELS 3 Zrotation Xrotation Yrotation
              JOINT LeftArm
              {
                OFFSET 16.3182 6.07031e-005 0
                CHANNELS 3 Zrotation Xrotation Yrotation
                JOINT LeftForeArm
                {
                  OFFSET 27.0901 0 0
                  CHANNELS 3 Zrotation Xrotation Yrotation
                  JOINT LeftHand
                  {
                    OFFSET 24.5451 1.51738e-005 0
                    CHANNELS 3 Zrotation Xrotation Yrotation
                    End Site
                    {
                      OFFSET 0 0 0
                    }
                  }
                }
              }
            }
            JOINT Neck
            {
              OFFSET 5.0226 -0.0266342 0
              CHANNELS 3 Zrotation Xrotation Yrotation
              JOINT Head
              {
                OFFSET 6.69364 2.86102e-005 0
                CHANNELS 3 Zrotation Xrotation Yrotation
                End Site
                {
                  OFFSET 0 0 0
                }
              }
            }
          }
        }
      }
    }
  }
}
MOTION
Frames:	17
Frame Time:	0.0416667
-102.261 90.4239 -107.455 65.4719 -54.6629 69.1774 -174.599 53.1113 91.211 -31.2062 7.08921 -4.35118 58.7422 -1.59357 0.588411 41.5822 22.3936 26.1289 171.325 -2.64393 86.881 -29.1764 -23.3158 -6.40483 69.6517 -4.53081 -2.67076 54.5044 -1.43776 -2.69084 1.45656 8.15093 -89.1383 10.5539 3.29711 1.41921 -1.11349 3.35639 1.27259 -23.6671 2.71818 2.34489 -3.65446 2.7182 2.34488 93.5337 -31.4828 -98.968 31.4375 -4.5901 -17.4643 -14.7937 2.85953 -95.2682 -21.6282 -0.526472 -2.4822 -93.9604 -47.1429 72.5162 -42.353 14.8852 39.7692 2.59965 -0.284532 -59.9967 26.8341 2.3619 5.02064 5.25632 -1.55007 3.44943 5.80028 -2.27193 -1.81751 
-95.3699 88.7567 -101.207 61.1942 -55.1403 65.3788 -168.163 57.4911 86.8773 -42.9071 7.70939 -6.57652 61.5174 0.248581 2.23431 38.7593 15.4178 19.1707 172.291 -2.78453 85.3706 -31.442 -22.7301 -8.46406 61.1494 0.340937 -0.00310302 57.1936 0.505306 2.68029 1.61392 8.14379 -88.7944 10.5509 3.76846 2.05866 -1.11592 3.8554 1.89065 -23.6679 2.97576 3.09627 -3.65523 2.97574 3.09626 93.6268 -31.3494 -98.8205 32.4642 -1.42309 -15.0103 -15.3001 2.16736 -101.271 -24.367 -0.712505 -1.85226 -93.6787 -46.4122 72.7298 -42.4807 13.3921 41.4 3.1078 -0.979504 -62.6069 25.1291 2.33703 5.52669 5.25501 -2.03777 1.6973 7.60906 -2.53279 -2.75527 
-88.1441 88.0507 -94.524 57.559 -53.6556 63.7541 -164.726 58.9373 83.7247 -53.4265 6.01615 -6.72512 67.9589 4.76544 3.22968 34.6573 7.23386 9.00824 175.291 0.934459 85.7979 -36.3837 -17.5342 -7.68495 44.7083 7.20868 6.08054 40.2729 0.737997 2.94684 1.51838 8.06574 -88.6676 10.7025 3.63756 2.31633 -0.965123 3.73595 2.15388 -23.51 2.77359 3.3024 -3.49737 2.77359 3.30239 93.5965 -32.9679 -98.4516 32.9488 -3.11934 -8.97821 -13.6307 2.53895 -102.387 -24.7354 -0.461333 -3.14482 -93.9611 -47.0878 72.4991 -39.6279 11.9826 38.8164 2.75226 -1.53727 -63.097 26.3228 2.31126 4.99417 5.97809 -1.87701 1.12748 8.60201 -2.44126 -4.25911 
-81.1501 87.4019 -87.9431 57.5602 -51.789 64.5298 -164.86 57.085 81.6169 -60.4266 6.84595 -5.33414 70.0806 7.34731 5.75545 40.9372 10.9153 4.22097 -179.729 10.9215 88.5082 -54.9256 -5.90168 -7.34447 37.062 8.55566 8.26903 23.1485 -0.537364 -7.4198 1.18572 8.22799 -88.5784 10.3783 3.01315 2.56044 -1.29146 3.12287 2.42533 -23.8219 2.1048 3.34718 -3.8092 2.1048 3.34719 92.6112 -35.4861 -99.643 32.6188 -9.02243 -0.84657 -11.7771 4.25389 -97.8435 -26.2104 -1.01064 -0.715625 -95.3548 -48.1282 70.7199 -34.712 8.97465 33.7707 2.81281 -2.19493 -64.7437 26.9412 2.45202 5.33271 5.41819 -1.34377 1.22232 11.7974 -2.14536 -5.05903 
-74.1767 86.8644 -81.5101 59.3003 -49.0002 64.7952 -165.869 51.9145 78.538 -63.5358 8.32306 -4.41343 71.5349 9.66054 8.02702 47.4521 16.4067 4.12647 -176.487 25.4888 88.6362 -78.1283 0.267482 -5.31736 40.7314 6.03828 5.4137 21.7128 -0.387161 -9.04098 0.632574 8.49901 -88.3602 9.83875 2.00421 3.09345 -1.8341 2.13833 3.00232 -24.3437 0.982501 3.55221 -4.33103 0.982501 3.55221 91.6376 -37.909 -100.754 34.9406 -15.0385 7.17151 -8.7897 0.531053 -86.6642 -25.3713 -0.494444 -2.95814 -97.0391 -48.722 68.4112 -28.5973 6.24548 25.7521 1.6898 -3.38599 -67.5831 28.2502 2.57341 5.33321 5.63704 -0.754616 0.457872 13.3138 -1.43906 -4.6036 
-66.9616 86.87 -75.1643 59.4185 -46.598 64.2968 -167.026 44.7943 77.4069 -61.7028 9.90238 -4.7201 71.3431 11.5199 10.7424 56.1275 24.1939 4.29428 -173.515 42.5269 86.907 -94.9899 0.915499 -3.72454 39.6985 5.83369 5.13683 23.3498 -0.40179 -7.04523 0.178706 8.52511 -88.2956 9.7955 1.12824 3.29131 -1.879 1.27193 3.23853 -24.3809 0.0875425 3.478 -4.36821 0.087563 3.478 90.9711 -39.7093 -101.432 38.8596 -19.8824 15.9666 -6.1079 0.535378 -74.0149 -27.7424 -0.478681 -3.21512 -97.6564 -49.3462 67.7146 -21.4169 5.17341 14.466 4.29111 -2.34593 -69.7809 28.983 2.69424 5.5289 6.5091 -0.266901 0.595621 12.5758 -1.00502 -4.90361 
-58.9406 87.4744 -67.8933 62.7039 -44.305 69.1484 -170.745 33.9134 81.0544 -57.099 14.0325 -4.07067 72.2634 13.9051 12.7537 57.1865 27.3078 7.48668 -175.397 55.5168 89.6301 -102.515 1.08812 -2.69933 41.1154 5.17389 4.37983 26.2439 -0.81236 -8.96237 -0.22533 8.5575 -88.6855 9.75241 0.14595 2.59564 -1.92113 0.259982 2.5867 -24.4362 -0.640658 2.5196 -4.42352 -0.640659 2.51961 89.8918 -41.4448 -102.791 42.9918 -22.2409 27.7191 -1.6435 -0.450738 -65.4259 -26.1024 -0.339064 -3.70836 -96.3329 -47.9094 69.1888 -19.8639 0.444306 7.202 5.59468 -3.76518 -78.176 30.2973 2.93966 5.95361 5.67568 0.481645 -0.123697 11.53 0.0161189 -4.00101 
-50.05 89.4024 -59.892 65.2345 -40.4971 74.7103 -174.118 21.7512 85.8598 -48.183 18.369 -2.13002 71.3085 11.9219 9.9042 54.8029 26.4767 9.70434 176.618 63.945 96.3965 -99.9435 0.0051468 -1.86003 46.1919 4.19411 3.11716 27.5418 -1.1454 -10.7286 -0.845345 8.44104 -89.3494 10.0019 -1.38876 1.41005 -1.66917 -1.32534 1.46979 -24.2074 -1.74833 0.927456 -4.19471 -1.74832 0.927467 89.7014 -42.8165 -102.719 45.6934 -24.292 39.0563 -0.0927638 -1.47073 -62.5033 -23.4619 -0.382837 -3.33615 -94.2341 -46.1872 71.8154 -22.4309 -5.29605 5.09238 8.49854 0.229486 -92.3837 29.3478 3.06259 6.69692 5.74238 1.84462 -0.0229711 8.88273 1.55475 -2.55094 
-40.5359 91.8362 -51.0283 65.9216 -41.3571 78.9129 -173.868 8.66562 94.3241 -34.4624 23.1824 -0.996524 61.6854 1.7747 3.09015 52.2026 27.974 15.9124 171.09 66.275 104.287 -88.1752 2.06991 -0.548958 47.2487 4.35009 3.35206 30.2773 -1.01619 -7.53436 -0.974056 8.27156 -89.9221 10.3348 -1.90488 0.31981 -1.33474 -1.88896 0.40337 -23.8813 -1.9129 -0.26769 -3.86862 -1.91288 -0.267683 88.9945 -43.8644 -103.584 47.2698 -23.7116 48.6639 0.57843 -1.61937 -62.1875 -21.6208 -0.436303 -2.86891 -92.6798 -45.3942 73.973 -22.9374 -6.08623 4.88349 8.57214 -5.35477 -104.575 30.1585 3.2017 6.88275 3.4972 3.48326 -0.352311 7.83924 3.48114 0.158824 
-31.127 94.3479 -42.3878 68.6313 -39.863 80.4927 -173.957 -5.75586 94.0781 -16.4797 29.261 0.459939 43.7502 -10.2865 -5.39142 33.1144 9.394 19.2567 172.351 63.7948 101.802 -71.9141 0.0707416 0.656098 50.2385 4.27106 3.18336 24.679 -0.731918 -9.76823 -1.36878 8.2038 -90.1043 10.4691 -2.77433 0.0383755 -1.19888 -2.76997 0.160527 -23.7564 -2.65752 -0.797815 -3.74378 -2.65753 -0.797816 89.233 -43.111 -103.41 48.1514 -20.5664 54.7653 0.255706 -0.837592 -62.7989 -18.7692 -0.334275 -3.14453 -92.648 -44.8208 73.8588 -23.3706 -4.83907 6.60654 9.33057 -7.21284 -115.444 29.5999 2.61113 5.04069 0.259075 4.29613 -0.810352 7.33612 4.57494 2.96431 
-21.6197 95.6684 -33.7204 67.0034 -40.9177 77.959 -176.111 -7.02647 91.6347 -21.5871 26.4277 1.4562 40.0914 -12.2546 -5.93517 19.9094 -4.94236 14.6887 178.008 60.0348 97.8655 -51.6574 -4.75339 0.414418 51.9896 4.01549 2.87884 27.8652 -0.942974 -8.81891 -1.44237 7.942 -90.0227 10.9963 -2.88191 0.22909 -0.671449 -2.86904 0.355806 -23.2315 -2.81743 -0.648354 -3.21887 -2.81741 -0.648352 89.5721 -42.5374 -103.012 47.3817 -18.3494 56.0037 -0.338862 -0.0694776 -64.1776 -18.1843 -0.123082 -4.42277 -91.9176 -43.7205 74.6951 -24.6411 -1.72429 8.96943 10.4269 -10.2433 -122.489 28.1983 2.36527 4.59863 -1.31077 4.756 -1.68728 7.66701 5.22878 3.96889 
-12.3731 95.8405 -25.7986 66.4655 -42.6257 74.9953 -175.957 -0.542055 90.1961 -41.8024 16.5072 1.09934 46.7742 -8.8481 -2.43775 21.2779 -3.53255 15.2455 179.454 54.2066 96.3269 -38.0727 -4.00022 -0.0179559 53.5421 3.33515 2.37063 36.0656 -1.79243 -8.94832 -1.28483 7.84782 -89.8915 11.1853 -2.50668 0.462317 -0.483404 -2.48392 0.572248 -23.0378 -2.52968 -0.312915 -3.02519 -2.52967 -0.31292 90.5716 -41.9851 -101.496 44.9929 -16.4015 52.3887 1.01347 1.15778 -64.2465 -18.1236 0.0252058 -5.33482 -92.1183 -43.7333 74.3828 -27.2242 2.8155 10.3356 12.0688 -12.2356 -120.829 27.4002 2.54648 5.52782 -1.40814 4.52078 -0.742481 7.09344 4.87961 4.2229 
-3.09248 95.063 -17.8479 69.8532 -43.2537 76.3855 -173.957 6.37903 87.5336 -64.5902 14.0852 1.0644 48.9216 -7.86587 -0.0661425 24.9964 0.703755 18.4083 177.989 47.1887 96.5082 -39.6099 -0.538936 0.217937 56.1341 1.94811 1.26583 34.1407 -1.71136 -9.72178 -1.11239 8.09767 -89.9495 10.6828 -2.19191 0.30091 -0.986391 -2.17656 0.397122 -23.5362 -2.18097 -0.372083 -3.52351 -2.18099 -0.372101 90.4497 -42.5446 -101.549 41.3424 -13.832 46.0924 1.52322 2.36947 -65.0623 -18.5376 -0.156812 -4.19146 -93.4957 -45.0038 72.5924 -28.867 5.75098 12.3009 12.5378 -11.2107 -112.452 28.4567 2.85155 6.26145 -2.30975 3.79485 0.807561 7.68561 3.97112 3.91782 
5.75208 93.3986 -9.70958 73.0633 -43.0334 79.1871 -170.76 18.1001 89.2721 -86.0438 12.1337 2.12058 51.8355 -6.1867 0.107851 26.4261 2.24513 18.7819 177.057 39.0988 97.9353 -46.4591 -1.23323 -0.24051 68.5587 -3.28472 -1.98182 32.8848 -0.352268 -1.81457 -0.873237 8.31227 -90.1781 10.2486 -1.82113 -0.197702 -1.42104 -1.82808 -0.117339 -23.9651 -1.67749 -0.736037 -3.95245 -1.67752 -0.736044 90.4283 -43.6184 -101.302 37.4172 -13.2319 37.9212 1.61014 2.7298 -66.9604 -19.2964 -0.322564 -3.24624 -94.6812 -47.0326 71.3916 -30.1744 7.55623 14.9741 9.04358 -8.5972 -101.797 27.593 2.60166 5.66533 -2.67472 2.75184 1.9162 7.88285 2.77003 3.28748 
13.2769 91.4164 -2.2558 74.2573 -43.1111 81.9286 -169.029 35.9646 90.5564 -101.776 12.6797 3.4882 51.0068 -6.13247 1.66822 30.6289 6.2518 17.6691 176.437 32.4287 101.235 -50.8969 2.96952 -0.344021 77.046 -7.32348 -3.67834 38.9253 -0.634267 -2.16281 -0.363935 8.54095 -90.4826 9.78524 -0.943983 -0.880652 -1.8857 -0.981822 -0.838255 -24.4193 -0.635725 -1.12363 -4.40668 -0.635702 -1.12362 89.8567 -43.4731 -102.283 34.7166 -10.75 26.8228 0.850266 2.4478 -69.6203 -22.4449 -0.30054 -3.67259 -95.1508 -47.8895 70.951 -32.3276 9.39583 17.9245 14.8228 -6.18108 -89.9893 30.9494 3.29087 6.89406 1.39978 1.21118 1.69393 5.65065 1.13566 3.18926 
21.3092 90.0682 4.965 70.1319 -47.3635 77.1793 -161.852 53.5342 84.5671 -104.11 12.565 3.06241 52.5606 -5.37637 2.50262 30.6247 6.44781 18.2945 178.174 27.1384 100.004 -51.7624 1.45373 -2.41919 82.1199 -10.3017 -4.64866 43.4541 -0.607882 -1.53433 0.541681 8.37962 -90.2701 10.1278 0.956287 -0.617322 -1.54298 0.928176 -0.658812 -24.0811 1.09762 -0.301364 -4.0685 1.09762 -0.301371 90.6179 -40.1863 -101.91 35.3375 -7.67027 16.4444 -2.42106 3.42131 -76.8832 -25.4714 -0.34156 -3.68249 -96.1701 -49.1881 69.8413 -33.5004 10.2339 25.5018 14.4359 -4.18374 -85.3226 35.643 3.86936 7.09761 5.97745 0.0663606 2.84556 2.25161 -0.372537 2.7312 
31.0839 91.3866 13.1852 64.9232 -51.2904 68.6866 -156.234 61.6072 78.2063 -90.5106 14.0114 0.245918 53.5767 -5.72803 1.2532 30.3946 6.19167 18.2437 178.612 19.2208 93.6398 -47.4542 -8.97409 -5.57231 75.8714 -7.52939 -3.94333 51.7127 -2.2871 -5.50869 1.23488 8.0178 -89.5858 10.8354 2.65005 0.57203 -0.832931 2.67265 0.45475 -23.3851 2.35557 1.34241 -3.37244 2.35557 1.34241 91.4876 -38.0971 -100.968 35.9344 -5.45569 8.7475 -5.61311 0.0722457 -90.0613 -24.562 -0.566564 -2.54568 -93.5533 -47.8066 73.3266 -38.4276 11.4775 36.19 11.2073 -6.00819 -86.6533 35.0168 3.26413 5.52155 5.38448 -0.794936 2.56874 2.08712 -1.19393 1.75517 
